<?xml version="1.0" encoding="UTF-8" standalone="no"?>
<svg width="147px" height="57px" viewBox="0 0 147 57" version="1.1" xmlns="http://www.w3.org/2000/svg" xmlns:xlink="http://www.w3.org/1999/xlink">
    <!-- Generator: Sketch 42 (36781) - http://www.bohemiancoding.com/sketch -->
    <title>Artboard</title>
    <desc>Created with Sketch.</desc>
    <defs>
        <polygon id="path-1" points="8.6988651 0.420234831 0.0798369501 0.420234831 0.0798369501 12.5679294 8.6988651 12.5679294"></polygon>
        <polygon id="path-3" points="50.6464575 55.7568157 0 55.7568157 0 27.9629438 0 0.169071821 50.6464575 0.169071821 50.6464575 55.7568157"></polygon>
        <polygon id="path-5" points="0 56.0167282 146.646079 56.0167282 146.646079 0.428898582 0 0.428898582"></polygon>
    </defs>
    <g id="Page-2" stroke="none" stroke-width="1" fill="none" fill-rule="evenodd">
        <g id="Artboard">
            <g id="middshield">
                <polygon id="Fill-3" fill="#0D395F" points="60.2276674 31.0908153 61.6467994 30.8120313 61.8218199 29.0518315 61.8218199 22.795059 61.6467994 21.0348592 60.2276674 20.7556462 60.2276674 20.2328188 64.0113009 20.2328188 64.9053713 22.795059 67.5505091 29.6441404 70.2650516 22.7774741 71.0888551 20.2328188 74.8724886 20.2328188 74.8724886 20.7556462 73.4706 21.0348592 73.2783361 22.795059 73.2783361 29.0518315 73.4706 30.8120313 74.8724886 31.0908153 74.8724886 31.6312276 70.0378698 31.6312276 70.0378698 31.0908153 71.4388962 30.8120313 71.6320223 29.0518315 71.6320223 21.4182945 68.6187378 29.0518315 67.7255296 31.6312276 66.587034 31.6312276 65.6408023 29.0518315 62.6102745 21.4182945 62.6102745 29.0518315 62.8025384 30.8120313 64.204427 31.0908153 64.204427 31.6312276 60.2276674 31.6312276"></polygon>
                <path d="M77.1270633,20.3898815 C77.1270633,19.7971437 77.6176381,19.2919011 78.2306411,19.2919011 C78.8259695,19.2919011 79.3346499,19.7799877 79.3346499,20.4070374 C79.3346499,20.9650345 78.878993,21.4878619 78.2306411,21.4878619 C77.6348815,21.4878619 77.1270633,21.0521009 77.1270633,20.3898815 L77.1270633,20.3898815 Z M76.2166117,31.0909011 L77.4426176,30.8644427 L77.6176381,29.539575 L77.6176381,25.9492649 L77.4426176,24.6076702 L76.040729,24.3807828 L76.040729,23.8403706 L79.2993009,23.5272746 L79.1242804,25.9492649 L79.1242804,29.539575 L79.2993009,30.8644427 L80.5253067,31.0909011 L80.5253067,31.6313133 L76.2166117,31.6313133 L76.2166117,31.0909011 Z" id="Fill-5" fill="#0D395F"></path>
                <path d="M86.7697891,29.7141367 L86.7697891,24.5549156 C86.2792144,24.346042 85.8938243,24.2418197 85.3506572,24.2418197 C83.7039123,24.2418197 82.7930296,25.6009993 82.7930296,27.7446344 C82.7930296,29.6442262 83.4939739,30.7945322 84.8600824,30.7945322 C85.4735164,30.7945322 86.1218683,30.5157481 86.7697891,29.7141367 M81.2161205,28.1109138 C81.2161205,25.3916968 82.9335633,23.4745201 85.420924,23.4745201 C85.9110677,23.4745201 86.2968889,23.5272746 86.7697891,23.631497 L86.7697891,21.5925131 L86.576663,20.2500606 L85.1756367,20.024031 L85.1756367,19.4836188 L88.4514519,19.169665 L88.2583258,21.5925131 L88.2583258,29.539575 L88.4514519,30.8644427 L89.5899475,31.0909011 L89.5899475,31.6313133 L86.7697891,31.9971638 L87.0323199,30.3416153 C86.226622,31.4220108 85.4036806,31.9971638 84.2470795,31.9971638 C82.4779065,31.9971638 81.2161205,30.4810073 81.2161205,28.1109138" id="Fill-7" fill="#0D395F"></path>
                <path d="M95.7755437,29.7141367 L95.7755437,24.5549156 C95.2849689,24.346042 94.8995789,24.2418197 94.3564117,24.2418197 C92.7096669,24.2418197 91.7987842,25.6009993 91.7987842,27.7446344 C91.7987842,29.6442262 92.4997284,30.7945322 93.865837,30.7945322 C94.479271,30.7945322 95.1276229,30.5157481 95.7755437,29.7141367 M90.2218751,28.1109138 C90.2218751,25.3916968 91.9393179,23.4745201 94.4266786,23.4745201 C94.9168223,23.4745201 95.3026434,23.5272746 95.7755437,23.631497 L95.7755437,21.5925131 L95.5824176,20.2500606 L94.1813912,20.024031 L94.1813912,19.4836188 L97.4572065,19.169665 L97.2640804,21.5925131 L97.2640804,29.539575 L97.4572065,30.8644427 L98.5957021,31.0909011 L98.5957021,31.6313133 L95.7755437,31.9971638 L96.0380745,30.3416153 C95.2323765,31.4220108 94.4094352,31.9971638 93.252834,31.9971638 C91.483661,31.9971638 90.2218751,30.4810073 90.2218751,28.1109138" id="Fill-9" fill="#0D395F"></path>
                <polygon id="Fill-11" fill="#0D395F" points="99.7015214 31.0908153 100.927527 30.8643569 101.120653 29.5394892 101.120653 21.5924273 100.927527 20.2504037 99.5265009 20.0239452 99.5265009 19.483533 102.785073 19.1695792 102.60919 21.5924273 102.60919 29.5394892 102.802316 30.8643569 104.011079 31.0908153 104.011079 31.6312276 99.7015214 31.6312276"></polygon>
                <path d="M108.457893,26.4376517 L109.64855,26.26309 C109.64855,24.8863256 109.000198,24.1717805 108.037154,24.1717805 C107.056005,24.1717805 106.373166,24.9039104 106.18004,26.4376517 L108.457893,26.4376517 Z M104.638911,27.8144162 C104.638911,25.1655385 105.987776,23.4743914 108.177257,23.4743914 C110.016697,23.4743914 111.295295,24.6598671 111.225459,27.1346119 L106.162796,27.1346119 C106.162796,27.1346119 106.145553,27.3786552 106.145553,27.5180473 C106.145553,29.4875496 107.109028,30.8818988 108.965711,30.8818988 C109.526122,30.8818988 110.156799,30.7425068 110.769802,30.289161 L111.120274,30.7596627 C110.12145,31.6663544 109.368345,31.9970352 108.10699,31.9970352 C106.022694,31.9970352 104.638911,30.4984635 104.638911,27.8144162 L104.638911,27.8144162 Z" id="Fill-13" fill="#0D395F"></path>
                <path d="M118.414578,27.675067 C118.414578,25.8801265 117.643367,24.65991 116.470385,24.65991 C115.752197,24.65991 115.068496,24.95585 114.437819,25.6879799 L114.437819,29.5394892 L114.612839,31.0560746 C115.034009,31.1954666 115.331027,31.2653771 115.786684,31.2653771 C117.591637,31.2653771 118.414578,29.6621542 118.414578,27.675067 M112.931177,31.6312276 L112.931177,21.5924273 L112.756156,20.2504037 L111.35513,20.0239452 L111.35513,19.483533 L114.612839,19.1695792 L114.437819,21.5924273 L114.437819,24.8687836 C115.086171,24.0148465 116.031971,23.4744343 117.101062,23.4744343 C118.782725,23.4744343 119.956138,24.9039533 119.956138,27.1174989 C119.956138,29.8187021 118.327068,31.997078 115.173681,31.997078 C114.437819,31.997078 113.930001,31.997078 112.931177,31.6312276" id="Fill-15" fill="#0D395F"></path>
                <path d="M121.988403,25.9493078 L121.795277,24.607713 L120.429168,24.3808257 L120.429168,23.8404135 L123.670065,23.5273175 L123.494183,25.9493078 L123.494183,28.8773984 C123.494183,30.0800301 124.055024,30.8121599 125.158602,30.8121599 C125.912139,30.8121599 126.594977,30.3588141 127.085552,29.7665052 L127.085552,25.9493078 L126.910532,24.607713 L125.543992,24.3808257 L125.543992,23.8404135 L128.784458,23.5273175 L128.592194,25.9493078 L128.592194,29.5396178 L128.784458,30.8644856 L130.045813,31.090944 L130.045813,31.6313562 L127.085552,31.9448811 L127.278678,30.376399 C126.454875,31.5091201 125.719013,31.9972067 124.475763,31.9972067 C122.933772,31.9972067 121.988403,31.0214624 121.988403,29.2784186 L121.988403,25.9493078 Z" id="Fill-17" fill="#0D395F"></path>
                <g id="Group-21" transform="translate(137.947214, 23.420436)">
                    <mask id="mask-2" fill="white">
                        <use xlink:href="#path-1"></use>
                    </mask>
                    <g id="Clip-20"></g>
                    <polygon id="Fill-19" fill="#0D395F" mask="url(#mask-2)" points="0.780781232 12.3414709 0.780781232 11.7487331 2.53271085 11.469949 3.28538534 10.2497325 4.03935308 8.48953276 1.58647918 2.52912916 0.868291496 1.16952065 0.0798369501 0.960647045 0.0798369501 0.420234831 3.91649384 0.420234831 3.91649384 0.960647045 2.79524164 1.16952065 3.21598065 2.52912916 4.79202757 6.55477125 6.26418299 2.52912916 6.64871085 1.16952065 5.54599531 0.960647045 5.54599531 0.420234831 8.69895132 0.420234831 8.69895132 0.960647045 7.80531202 1.16952065 7.1401478 2.52912916 3.3211654 12.5679294"></polygon>
                </g>
                <path d="M136.390307,23.7085272 C135.395794,23.7085272 134.611219,24.2622352 133.877944,25.489743 C133.875788,25.4708714 133.87234,25.4519999 133.871477,25.4335573 L133.874064,25.2298304 C133.879668,25.1414773 133.890014,25.0526953 133.899929,24.9643422 C133.922345,24.7704801 133.944331,24.5770468 133.966316,24.3831846 C133.998648,24.1001116 134.030979,23.8170385 134.06331,23.5343943 L130.983639,23.8470614 L130.983639,24.3870447 L132.383803,24.6135032 L132.576067,25.9538112 L132.576067,29.5394034 L132.383803,30.8625555 L131.15909,31.089014 L131.15909,31.6285684 L135.654876,31.6285684 L135.654876,31.089014 L134.255574,30.8625555 L134.06331,29.5394034 L134.06331,29.1229429 L134.06331,27.9910795 L134.06331,26.7344067 L134.06331,26.3895722 L134.06331,26.2471779 C134.06331,26.2248751 134.065035,26.2008568 134.066759,26.1768385 C134.573284,25.5527911 135.253536,25.3276193 135.777735,25.3276193 C136.145451,25.3276193 136.512304,25.4494265 136.810184,25.5883897 L137.247735,23.8303344 C136.88002,23.7256831 136.70543,23.7085272 136.390307,23.7085272" id="Fill-22" fill="#0D395F"></path>
                <g id="Group-26" transform="translate(0.000000, 0.259913)">
                    <mask id="mask-4" fill="white">
                        <use xlink:href="#path-3"></use>
                    </mask>
                    <g id="Clip-25"></g>
                    <path d="M1.26221701,1.42488687 L1.26221701,25.6323518 C1.26264809,25.6730971 1.32127566,30.0182687 4.33412903,35.7144707 C7.09824633,40.9397422 12.9825572,48.4000041 25.3370235,54.36341 C37.7014047,48.3974307 43.5788182,40.9384555 46.3343138,35.713184 C49.3376833,30.0182687 49.3842405,25.6748127 49.3842405,25.6319229 L49.3842405,1.42488687 L1.26221701,1.42488687 Z M25.3370235,55.7569015 L25.0641466,55.6265163 C12.1695308,49.4726795 6.04467449,41.6791633 3.17752786,36.2244311 C0.0482815249,30.2708899 0.000431085044,25.8206382 0,25.6344962 L0,0.169071821 L50.6464575,0.169071821 L50.6464575,25.6323518 C50.6464575,25.8189226 50.6115396,30.2687454 47.490915,36.2218578 C44.63239,41.676161 38.5157243,49.4701061 25.6099003,55.6265163 L25.3370235,55.7569015 Z" id="Fill-24" fill="#0D395F" mask="url(#mask-4)"></path>
                </g>
                <path d="M16.2116428,9.89271736 C15.6417484,9.13313797 14.8839009,8.52238639 14.002763,8.13423317 C14.3403026,8.61931747 14.6243877,9.2150576 14.8433789,9.89271736 L16.2116428,9.89271736 Z" id="Fill-27" fill="#0D395F"></path>
                <path d="M12.232383,7.77781845 L12.232383,9.89271736 L13.8506762,9.89271736 C13.4420076,8.78615902 12.8488346,8.0360154 12.232383,7.77781845" id="Fill-29" fill="#0D395F"></path>
                <path d="M9.14249472,12.7204457 L11.2858496,12.7204457 L11.2858496,10.8345786 L9.3882132,10.8345786 C9.25630117,11.4032982 9.17008416,12.0354947 9.14249472,12.7204457" id="Fill-31" fill="#0D395F"></path>
                <path d="M9.6675563,9.89271736 L11.2858496,9.89271736 L11.2858496,7.77738955 C10.6693979,8.0351576 10.0757938,8.78573012 9.6675563,9.89271736" id="Fill-33" fill="#0D395F"></path>
                <path d="M9.38838563,15.5487745 L11.2855909,15.5487745 L11.2855909,13.6624786 L9.14266716,13.6624786 C9.16982551,14.3474296 9.25604252,14.9796261 9.38838563,15.5487745" id="Fill-35" fill="#0D395F"></path>
                <path d="M11.2857202,18.6055347 L11.2857202,16.4906358 L9.66785806,16.4906358 C10.0756645,17.5976231 10.6692686,18.3477667 11.2857202,18.6055347" id="Fill-37" fill="#0D395F"></path>
                <path d="M8.19639238,13.662307 L6.22331613,13.662307 C6.28065044,14.3326755 6.4604129,14.9670165 6.7371695,15.548603 L8.42486745,15.548603 C8.29985279,14.9592963 8.22182639,14.3266709 8.19639238,13.662307" id="Fill-39" fill="#0D395F"></path>
                <path d="M14.1297176,10.8345786 L12.2325123,10.8345786 L12.2325123,12.7204457 L14.3758672,12.7204457 C14.3482777,12.0354947 14.2620607,11.4032982 14.1297176,10.8345786" id="Fill-41" fill="#0D395F"></path>
                <path d="M8.42447947,10.8345786 L6.73678152,10.8345786 C6.46002493,11.4157362 6.28069355,12.0500772 6.22335924,12.7204457 L8.19643548,12.7204457 C8.2218695,12.0565107 8.29989589,11.4238853 8.42447947,10.8345786" id="Fill-43" fill="#0D395F"></path>
                <path d="M7.30706393,16.4906358 C7.87695836,17.2497863 8.63437478,17.8596801 9.51465044,18.2482622 C9.17754194,17.7631779 8.89388798,17.1674378 8.67489677,16.4906358 L7.30706393,16.4906358 Z" id="Fill-45" fill="#0D395F"></path>
                <path d="M15.3219695,12.7204457 L17.2946147,12.7204457 C17.2377114,12.0500772 17.0583801,11.4157362 16.7816235,10.8345786 L15.0934944,10.8345786 C15.218078,11.4238853 15.2965355,12.0565107 15.3219695,12.7204457" id="Fill-47" fill="#0D395F"></path>
                <path d="M9.5144349,8.13470496 C8.63415924,8.52328708 7.87674282,9.13318086 7.30684839,9.89276025 L8.67468123,9.89276025 C8.89367243,9.21552939 9.17775748,8.62021816 9.5144349,8.13470496" id="Fill-49" fill="#0D395F"></path>
                <path d="M15.093322,15.5487745 L16.781451,15.5487745 C17.0582076,14.967188 17.2379701,14.332847 17.2948733,13.6624786 L15.3217971,13.6624786 C15.296363,14.3268425 15.2183367,14.959039 15.093322,15.5487745" id="Fill-51" fill="#0D395F"></path>
                <path d="M44.7120545,16.052859 L38.6449636,19.5929879 L32.5735619,16.052859 L32.5735619,9.21836012 L33.5202246,9.21836012 L33.5202246,15.5133046 L38.6449636,18.501441 L43.7653918,15.5133046 L43.7653918,9.21836012 L44.7120545,9.21836012 L44.7120545,16.052859 Z M34.475078,8.6204755 C34.475078,8.6204755 36.9999431,8.66122086 38.1341279,10.7388056 L38.1341279,17.0513349 C36.9999431,14.9741791 34.475078,14.9334337 34.475078,14.9334337 C34.475078,14.9334337 34.4384358,8.57973013 34.475078,8.6204755 L34.475078,8.6204755 Z M39.0747554,10.7928468 C40.2210106,8.71569098 42.7726029,8.67537451 42.7726029,8.67537451 C42.8101073,8.63420025 42.7726029,14.9879038 42.7726029,14.9879038 C42.7726029,14.9879038 40.2210106,15.0282203 39.0747554,17.105805 L39.0747554,10.7928468 Z M30.8160282,20.5245556 L19.830688,20.5245556 L19.830688,19.4257175 L21.4942452,19.4257175 L21.4942452,14.0233109 L29.1516088,14.0233109 L29.1516088,19.4257175 L30.8160282,19.4257175 L30.8160282,20.5245556 Z M11.7594827,19.6650429 C8.17156188,19.6650429 5.25268504,16.7609706 5.25268504,13.1912477 C5.25268504,9.62152479 8.17156188,6.71788138 11.7594827,6.71788138 C15.3469724,6.71788138 18.2654182,9.62152479 18.2654182,13.1912477 C18.2654182,16.7609706 15.3469724,19.6650429 11.7594827,19.6650429 L11.7594827,19.6650429 Z M25.8753625,3.21978455 L25.8753625,3.84683427 C26.3568845,4.0522767 26.6965795,4.50905369 26.6965795,5.04689251 C26.6965795,5.58430243 26.3568845,6.04065052 25.8753625,6.24566405 L25.8753625,7.00781683 C26.5987232,7.27116056 27.9040487,7.90078368 28.5011015,9.17975925 C29.0597877,10.377673 29.1619548,11.4147498 29.1675589,11.9826115 L29.6818434,11.9826115 L29.6818434,13.0814497 L20.9648727,13.0814497 L20.9648727,11.9826115 L21.4791572,11.9826115 C21.4847613,11.4147498 21.5873595,10.377673 22.1460457,9.17975925 C22.7413742,7.90335707 24.0466997,7.27116056 24.7709226,7.00695903 L24.7709226,6.24523515 C24.2898317,6.04022162 23.9501367,5.58430243 23.9501367,5.04689251 C23.9501367,4.50905369 24.2898317,4.05313449 24.7709226,3.84769207 L24.7709226,3.21978455 L3.10027742,3.21978455 L3.10027742,25.2218529 C3.10027742,25.2218529 3.1037261,26.2117509 3.43307507,27.8587214 C3.47101056,27.8458544 3.50937713,27.8329875 3.54731261,27.8201205 C5.91655601,27.0150779 10.1920575,25.6357401 13.023424,25.6357401 C15.8547906,25.6357401 16.8949988,26.3828814 19.6108346,26.3828814 C19.9238023,26.3828814 20.225993,26.3897438 20.5225795,26.4000373 L20.5225795,21.4595546 L30.1241367,21.4595546 L30.1241367,26.562161 C32.0476381,26.5042597 33.4801337,26.5600165 35.2122334,26.8718258 C37.6103595,27.3028688 39.0838082,28.8550528 40.7878874,29.1136787 C42.4928287,29.3727334 43.994729,28.9987338 45.8152012,29.0853714 C46.2842217,29.1072452 46.6256411,29.1231144 46.9291249,29.1372681 C47.5451455,26.735436 47.5464387,25.2218529 47.5464387,25.2218529 L47.5464387,3.21978455 L25.8753625,3.21978455 Z" id="Fill-53" fill="#0D395F"></path>
                <path d="M14.3759103,13.662307 L12.2325554,13.662307 L12.2325554,15.548603 L14.1297607,15.548603 C14.2621038,14.9798834 14.3483208,14.3476869 14.3759103,13.662307" id="Fill-55" fill="#0D395F"></path>
                <path d="M12.232383,18.6052774 C12.8488346,18.3466515 13.4420076,17.5969368 13.8502452,16.4908074 L12.232383,16.4908074 L12.232383,18.6052774 Z" id="Fill-57" fill="#0D395F"></path>
                <path d="M14.002763,18.2486911 C14.8834698,17.8605379 15.6417484,17.2502152 16.2112117,16.4906358 L14.8433789,16.4906358 C14.6239566,17.1678667 14.3403026,17.7636068 14.002763,18.2486911" id="Fill-59" fill="#0D395F"></path>
                <mask id="mask-6" fill="white">
                    <use xlink:href="#path-5"></use>
                </mask>
                <g id="Clip-62"></g>
                <polygon id="Fill-61" fill="#0D395F" mask="url(#mask-6)" points="24.2998328 25.9578 26.3466246 25.9578 26.3466246 22.4339692 24.2998328 22.4339692"></polygon>
                <path d="M23.9411701,42.5915164 C23.7851173,42.4675647 23.5419853,42.3431841 23.1367654,42.1754848 C22.830695,42.3371795 22.6121349,42.5855118 22.6121349,42.9453577 C22.6121349,43.379832 22.9242405,43.6594738 23.4113666,43.6594738 C23.8476246,43.6594738 24.1472287,43.4047081 24.1472287,43.0384287 C24.1472287,42.8462821 24.0791173,42.6970254 23.9411701,42.5915164" id="Fill-63" fill="#0D395F" mask="url(#mask-6)"></path>
                <path d="M23.4170138,41.5981015 C23.691615,41.4612828 24.016222,41.2442602 24.016222,40.9028569 C24.016222,40.5738917 23.77309,40.3748827 23.3549375,40.3748827 C22.9553217,40.3748827 22.693222,40.5923343 22.693222,40.914866 C22.693222,41.2755697 23.123876,41.4801544 23.4170138,41.5981015" id="Fill-64" fill="#0D395F" mask="url(#mask-6)"></path>
                <path d="M26.8810408,40.3934969 C26.6374777,40.3934969 26.4503868,40.5865013 26.3318384,40.9150376 C26.2318267,41.1822414 26.1882871,41.5360827 26.1882871,41.9765616 C26.1882871,42.3925932 26.2193252,42.7159827 26.2753663,42.9454435 C26.3878795,43.42967 26.6124748,43.6346835 26.8745745,43.6346835 C27.1366742,43.6346835 27.348337,43.4112274 27.4612812,43.0509525 C27.5423252,42.7841776 27.5798296,42.4303363 27.5798296,42.0143047 C27.5798296,41.6102822 27.5483604,41.3314981 27.4862842,41.0638654 C27.3677358,40.5800678 27.1552109,40.3934969 26.8810408,40.3934969" id="Fill-65" fill="#0D395F" mask="url(#mask-6)"></path>
                <path d="M30.3624836,44.1437861 C29.26451,44.1437861 28.9149,42.8708151 28.9149,41.9829951 C28.9149,40.7597763 29.5391111,39.8783897 30.3693809,39.8783897 C31.4863223,39.8783897 31.8355012,41.1016085 31.8355012,42.0014377 C31.8355012,43.2868468 31.236724,44.1437861 30.3624836,44.1437861 L30.3624836,44.1437861 Z M26.8685393,44.1437861 C25.7701346,44.1437861 25.4205246,42.8708151 25.4205246,41.9829951 C25.4205246,40.7597763 26.0447358,39.8783897 26.8745745,39.8783897 C27.9915158,39.8783897 28.3411258,41.1016085 28.3411258,42.0014377 C28.3411258,43.2868468 27.7419176,44.1437861 26.8685393,44.1437861 L26.8685393,44.1437861 Z M23.3422636,44.1686622 C22.6249381,44.1686622 21.8696771,43.8148209 21.8696771,42.9947668 C21.8696771,42.4925266 22.2067856,42.0885041 22.6680466,41.9272383 C22.2878296,41.7724059 22.000727,41.3932595 22.000727,40.9772279 C22.000727,40.1889123 22.7370202,39.8783897 23.4168413,39.8783897 C24.2035716,39.8783897 24.7467387,40.2944214 24.7467387,40.9025995 C24.7467387,41.4117022 24.3471229,41.6973486 23.9160378,41.8586145 C24.5217123,42.1069468 24.9023604,42.4050313 24.9023604,42.9205674 C24.9023604,43.7217499 24.0600202,44.1686622 23.3422636,44.1686622 L23.3422636,44.1686622 Z M21.2640026,44.0507151 L19.2861845,44.0507151 L19.2861845,43.4982938 L20.0099762,43.4982938 L20.0099762,40.7413337 C19.9479,40.7790768 19.7539117,40.9025995 19.5857886,40.9832325 C19.4172343,41.0638654 19.1861727,41.1633699 19.1111639,41.188246 L18.9430408,40.8219666 L20.1974982,39.9465846 L20.6837622,39.9465846 L20.6837622,43.4982938 L21.2640026,43.4982938 L21.2640026,44.0507151 Z M31.7139352,34.7998016 L31.7139352,34.8212465 L18.9551111,34.8212465 L9.70963021,40.5843568 C13.0031199,44.5919851 17.9347328,48.770744 25.3274103,52.2932881 C32.7369,48.7643106 37.6723927,44.5774026 40.9624337,40.5637697 L31.7139352,34.7998016 Z" id="Fill-66" fill="#0D395F" mask="url(#mask-6)"></path>
                <path d="M30.3750713,40.3934969 C30.1315082,40.3934969 29.9444173,40.5865013 29.8258689,40.9150376 C29.7262883,41.1822414 29.6823176,41.5360827 29.6823176,41.9765616 C29.6823176,42.3925932 29.7133557,42.7159827 29.7698279,42.9454435 C29.88191,43.42967 30.1065053,43.6346835 30.3690361,43.6346835 C30.6307047,43.6346835 30.8432296,43.4112274 30.9553117,43.0509525 C31.0367868,42.7841776 31.0738601,42.4303363 31.0738601,42.0143047 C31.0738601,41.6102822 31.042822,41.3314981 30.9803147,41.0638654 C30.8617663,40.5800678 30.6496724,40.3934969 30.3750713,40.3934969" id="Fill-67" fill="#0D395F" mask="url(#mask-6)"></path>
                <polygon id="Fill-68" fill="#0D395F" mask="url(#mask-6)" points="18.7362493 28.4376916 31.9106393 28.4376916 31.9106393 27.4958303 18.7362493 27.4958303"></polygon>
                <path d="M21.3093959,32.6203106 L29.3370616,32.6203106 L29.3370616,30.7121408 L21.3093959,30.7121408 L21.3093959,32.6203106 Z M20.3627331,33.5621719 L30.2837243,33.5621719 L30.2837243,29.7702795 L20.3627331,29.7702795 L20.3627331,33.5621719 Z" id="Fill-69" fill="#0D395F" mask="url(#mask-6)"></path>
                <polygon id="Fill-70" fill="#0D395F" mask="url(#mask-6)" points="24.2998328 18.231192 26.3466246 18.231192 26.3466246 15.0693517 24.2998328 15.0693517"></polygon>
                <polygon id="Fill-71" fill="#0D395F" mask="url(#mask-6)" points="22.5664399 18.2294764 23.1975484 18.2294764 23.1975484 15.0740696 22.5664399 15.0740696"></polygon>
                <polygon id="Fill-72" fill="#0D395F" mask="url(#mask-6)" points="27.448478 18.2294764 28.0795865 18.2294764 28.0795865 15.0740696 27.448478 15.0740696"></polygon>
                <path d="M25.9245062,5.04757875 C25.9245062,5.35981691 25.6555091,5.61286708 25.3235736,5.61286708 C24.991207,5.61286708 24.72221,5.35981691 24.72221,5.04757875 C24.72221,4.73362498 24.991207,4.47971702 25.3235736,4.47971702 C25.6555091,4.47971702 25.9245062,4.73362498 25.9245062,5.04757875" id="Fill-73" fill="#0D395F" mask="url(#mask-6)"></path>
                <path d="M18.9326947,31.4077714 L7.98011701,38.2791556 C8.21333402,38.6184144 8.45775924,38.9598176 8.71382375,39.3033654 L18.9326947,32.8926183 L18.9326947,31.4077714 Z" id="Fill-74" fill="#0D395F" mask="url(#mask-6)"></path>
                <path d="M31.7131161,32.945673 L41.9138815,39.3598513 C42.1703771,39.0167325 42.4156645,38.6753292 42.6493126,38.3364993 L31.7131161,31.4603973 L31.7131161,32.945673 Z" id="Fill-75" fill="#0D395F" mask="url(#mask-6)"></path>
            </g>
        </g>
    </g>
</svg>