<svg width="147" height="57" xmlns="http://www.w3.org/2000/svg" xmlns:xlink="http://www.w3.org/1999/xlink"><defs><path id="path-1" d="M8.699.42H.079v12.148H8.7z"/><path id="path-3" d="M50.646 55.757H0V.169h50.646v55.588z"/><path id="path-5" d="M0 56.017h146.646V.429H0z"/></defs><g id="Page-2" stroke="none" stroke-width="1" fill="none" fill-rule="evenodd"><g id="Artboard"><g id="middshield"><path id="Fill-3" fill="#0D395F" d="M60.228 31.09l1.419-.278.175-1.76v-6.257l-.175-1.76-1.42-.28v-.522h3.784l.894 2.562 2.646 6.85 2.714-6.868.824-2.544h3.783v.523l-1.401.279-.193 1.76v6.257l.193 1.76 1.401.279v.54h-4.834v-.54l1.4-.279.194-1.76v-7.634l-3.013 7.634-.893 2.58h-1.139l-.946-2.58-3.03-7.634v7.634l.192 1.76 1.401.279v.54h-3.976z"/><path d="M77.127 20.39c0-.593.49-1.098 1.104-1.098.595 0 1.104.488 1.104 1.115 0 .558-.456 1.08-1.104 1.08-.596 0-1.104-.435-1.104-1.097zm-.91 10.7l1.226-.226.175-1.324v-3.59l-.175-1.342-1.402-.227v-.54l3.258-.314-.175 2.422v3.59l.175 1.325 1.226.227v.54h-4.308v-.54z" id="Fill-5" fill="#0D395F"/><path d="M86.77 29.714v-5.16c-.49-.208-.876-.312-1.42-.312-1.646 0-2.557 1.359-2.557 3.503 0 1.9.701 3.05 2.067 3.05.614 0 1.262-.28 1.91-1.08m-5.554-1.604c0-2.72 1.718-4.636 4.205-4.636.49 0 .876.052 1.349.156v-2.038l-.193-1.343-1.401-.226v-.54l3.275-.314-.193 2.423v7.947l.193 1.324 1.139.227v.54l-2.82.366.262-1.655c-.805 1.08-1.628 1.655-2.785 1.655-1.77 0-3.03-1.516-3.03-3.886" id="Fill-7" fill="#0D395F"/><path d="M95.776 29.714v-5.16c-.491-.208-.876-.312-1.42-.312-1.646 0-2.557 1.359-2.557 3.503 0 1.9.7 3.05 2.067 3.05.613 0 1.262-.28 1.91-1.08m-5.554-1.604c0-2.72 1.717-4.636 4.205-4.636.49 0 .876.052 1.349.156v-2.038l-.194-1.343-1.4-.226v-.54l3.275-.314-.193 2.423v7.947l.193 1.324 1.139.227v.54l-2.82.366.262-1.655c-.806 1.08-1.629 1.655-2.785 1.655-1.77 0-3.031-1.516-3.031-3.886" id="Fill-9" fill="#0D395F"/><path id="Fill-11" fill="#0D395F" d="M99.702 31.09l1.226-.226.193-1.325v-7.947l-.193-1.342-1.401-.226v-.54l3.258-.314-.176 2.422v7.947l.193 1.325 1.21.227v.54h-4.31z"/><path d="M108.458 26.438l1.19-.175c0-1.377-.648-2.091-1.61-2.091-.982 0-1.665.732-1.858 2.266h2.278zm-3.82 1.376c0-2.648 1.35-4.34 3.54-4.34 1.839 0 3.117 1.186 3.047 3.66h-5.062s-.017.245-.017.384c0 1.97.963 3.364 2.82 3.364.56 0 1.19-.14 1.804-.593l.35.47c-.999.907-1.752 1.238-3.013 1.238-2.084 0-3.468-1.499-3.468-4.183z" id="Fill-13" fill="#0D395F"/><path d="M118.415 27.675c0-1.795-.772-3.015-1.945-3.015-.718 0-1.402.296-2.032 1.028v3.851l.175 1.517c.421.14.718.21 1.174.21 1.805 0 2.628-1.604 2.628-3.59m-5.484 3.955V21.592l-.175-1.342-1.4-.226v-.54l3.257-.314-.175 2.422v3.277c.648-.854 1.594-1.395 2.663-1.395 1.682 0 2.855 1.43 2.855 3.643 0 2.702-1.629 4.88-4.782 4.88-.736 0-1.244 0-2.243-.366" id="Fill-15" fill="#0D395F"/><path d="M121.988 25.95l-.193-1.342-1.366-.227v-.54l3.241-.314-.176 2.422v2.928c0 1.203.561 1.935 1.665 1.935.753 0 1.436-.453 1.927-1.045v-3.818l-.175-1.341-1.367-.227v-.54l3.24-.314-.192 2.422v3.59l.192 1.325 1.262.227v.54l-2.96.314.193-1.569c-.824 1.133-1.56 1.621-2.803 1.621-1.542 0-2.488-.976-2.488-2.719V25.95z" id="Fill-17" fill="#0D395F"/><g id="Group-21" transform="translate(137.947 23.42)"><mask id="mask-2" fill="#fff"><use xlink:href="#path-1"/></mask><path id="Fill-19" fill="#0D395F" mask="url(#mask-2)" d="M.78 12.341v-.592l1.753-.28.752-1.22.754-1.76-2.453-5.96-.718-1.36L.08.962V.42h3.836v.54l-1.12.209.42 1.36 1.576 4.025 1.472-4.026.385-1.36L5.546.962V.42h3.153v.54l-.894.209-.665 1.36-3.819 10.038z"/></g><path d="M136.39 23.709c-.994 0-1.779.553-2.512 1.78-.002-.018-.006-.037-.007-.055l.003-.204c.006-.089.016-.177.026-.266l.066-.58.097-.85-3.08.313v.54l1.4.227.193 1.34v3.585l-.192 1.324-1.225.226v.54h4.496v-.54l-1.4-.226-.192-1.324v-3.292c0-.022.002-.046.004-.07a2.231 2.231 0 011.71-.85c.368 0 .735.122 1.033.261l.438-1.758a2.608 2.608 0 00-.858-.121" id="Fill-22" fill="#0D395F"/><g id="Group-26" transform="translate(0 .26)"><mask id="mask-4" fill="#fff"><use xlink:href="#path-3"/></mask><path d="M1.262 1.425v24.207c0 .041.06 4.386 3.072 10.082 2.764 5.226 8.649 12.686 21.003 18.65 12.364-5.967 18.242-13.426 20.997-18.65 3.004-5.696 3.05-10.04 3.05-10.082V1.425H1.262zm24.075 54.332l-.273-.13C12.17 49.473 6.044 41.679 3.178 36.224.048 30.271 0 25.821 0 25.634V.17h50.646v25.463c0 .187-.034 4.637-3.155 10.59-2.859 5.454-8.975 13.248-21.881 19.405l-.273.13z" id="Fill-24" fill="#0D395F" mask="url(#mask-4)"/></g><path d="M16.212 9.893a5.576 5.576 0 00-2.21-1.759c.338.485.622 1.081.841 1.759h1.369z" id="Fill-27" fill="#0D395F"/><path d="M12.232 7.778v2.115h1.619c-.409-1.107-1.002-1.857-1.619-2.115" id="Fill-29" fill="#0D395F"/><path d="M9.142 12.72h2.144v-1.885H9.388a10.19 10.19 0 00-.246 1.885" id="Fill-31" fill="#0D395F"/><path d="M9.668 9.893h1.618V7.777c-.617.258-1.21 1.009-1.618 2.116" id="Fill-33" fill="#0D395F"/><path d="M9.388 15.549h1.898v-1.887H9.143c.027.685.113 1.318.245 1.887" id="Fill-35" fill="#0D395F"/><path d="M11.286 18.606V16.49H9.668c.408 1.107 1.001 1.857 1.618 2.115" id="Fill-37" fill="#0D395F"/><path d="M8.196 13.662H6.223c.058.67.237 1.305.514 1.887h1.688a11.168 11.168 0 01-.229-1.887" id="Fill-39" fill="#0D395F"/><path d="M14.13 10.835h-1.897v1.885h2.143a10.145 10.145 0 00-.246-1.885" id="Fill-41" fill="#0D395F"/><path d="M8.424 10.835H6.737a5.459 5.459 0 00-.514 1.885h1.973c.026-.663.104-1.296.228-1.885" id="Fill-43" fill="#0D395F"/><path d="M7.307 16.49a5.583 5.583 0 002.208 1.758c-.337-.485-.621-1.08-.84-1.757H7.307z" id="Fill-45" fill="#0D395F"/><path d="M15.322 12.72h1.973a5.449 5.449 0 00-.513-1.885h-1.689c.125.589.204 1.222.229 1.885" id="Fill-47" fill="#0D395F"/><path d="M9.514 8.135a5.58 5.58 0 00-2.207 1.758h1.368c.219-.677.503-1.273.84-1.758" id="Fill-49" fill="#0D395F"/><path d="M15.093 15.549h1.688a5.454 5.454 0 00.514-1.887h-1.973a11.174 11.174 0 01-.229 1.887" id="Fill-51" fill="#0D395F"/><path d="M44.712 16.053l-6.067 3.54-6.071-3.54V9.218h.946v6.295l5.125 2.988 5.12-2.988V9.218h.947v6.835zM34.475 8.62s2.525.041 3.66 2.119v6.312c-1.135-2.077-3.66-2.118-3.66-2.118s-.037-6.353 0-6.313zm4.6 2.173c1.146-2.077 3.698-2.118 3.698-2.118.037-.04 0 6.313 0 6.313s-2.552.04-3.698 2.118v-6.313zm-8.259 9.732H19.831v-1.1h1.663v-5.402h7.658v5.403h1.664v1.099zm-19.057-.86c-3.587 0-6.506-2.904-6.506-6.474 0-3.57 2.919-6.473 6.506-6.473 3.588 0 6.506 2.904 6.506 6.473 0 3.57-2.918 6.474-6.506 6.474zM25.875 3.22v.627c.482.205.822.662.822 1.2 0 .537-.34.994-.822 1.199v.762c.724.263 2.029.893 2.626 2.172.559 1.198.661 2.235.667 2.803h.514v1.098h-8.717v-1.098h.514c.006-.568.108-1.605.667-2.803.595-1.277 1.9-1.909 2.625-2.173v-.762c-.481-.205-.82-.66-.82-1.198 0-.538.339-.994.82-1.2V3.22H3.1v22.002s.003.99.332 2.637l.114-.039c2.37-.805 6.645-2.184 9.476-2.184 2.832 0 3.872.747 6.588.747.313 0 .615.007.912.017v-4.94h9.601v5.102c1.924-.058 3.356-.002 5.088.31 2.398.43 3.872 1.983 5.576 2.242 1.705.259 3.207-.115 5.027-.029l1.114.052c.616-2.402.617-3.915.617-3.915V3.22h-21.67z" id="Fill-53" fill="#0D395F"/><path d="M14.376 13.662h-2.143v1.887h1.897c.132-.57.218-1.201.246-1.887" id="Fill-55" fill="#0D395F"/><path d="M12.232 18.605c.617-.258 1.21-1.008 1.618-2.114h-1.618v2.114z" id="Fill-57" fill="#0D395F"/><path d="M14.003 18.249a5.573 5.573 0 002.208-1.758h-1.368c-.219.677-.503 1.273-.84 1.758" id="Fill-59" fill="#0D395F"/><mask id="mask-6" fill="#fff"><use xlink:href="#path-5"/></mask><path id="Fill-61" fill="#0D395F" mask="url(#mask-6)" d="M24.3 25.958h2.047v-3.524H24.3z"/><path d="M23.941 42.592c-.156-.124-.399-.249-.804-.417-.306.162-.525.41-.525.77 0 .435.312.714.8.714.436 0 .735-.254.735-.62a.53.53 0 00-.206-.447" id="Fill-63" fill="#0D395F" mask="url(#mask-6)"/><path d="M23.417 41.598c.275-.137.6-.354.6-.695 0-.33-.244-.528-.662-.528-.4 0-.662.217-.662.54 0 .36.43.565.724.683" id="Fill-64" fill="#0D395F" mask="url(#mask-6)"/><path d="M26.881 40.393c-.244 0-.43.194-.55.522-.1.267-.143.621-.143 1.062 0 .416.031.739.087.968.113.485.337.69.6.69.262 0 .473-.224.586-.584.081-.267.119-.62.119-1.037 0-.404-.032-.683-.094-.95-.118-.484-.33-.67-.605-.67" id="Fill-65" fill="#0D395F" mask="url(#mask-6)"/><path d="M30.362 44.144c-1.097 0-1.447-1.273-1.447-2.161 0-1.223.624-2.105 1.454-2.105 1.117 0 1.467 1.224 1.467 2.123 0 1.286-.6 2.143-1.474 2.143zm-3.493 0c-1.099 0-1.448-1.273-1.448-2.161 0-1.223.624-2.105 1.454-2.105 1.117 0 1.466 1.224 1.466 2.123 0 1.286-.6 2.143-1.472 2.143zm-3.527.025c-.717 0-1.472-.354-1.472-1.174 0-.502.337-.906.798-1.068-.38-.155-.667-.534-.667-.95 0-.788.736-1.099 1.416-1.099.787 0 1.33.416 1.33 1.025 0 .509-.4.794-.831.956.606.248.986.546.986 1.062 0 .8-.842 1.248-1.56 1.248zm-2.078-.118h-1.978v-.553h.724v-2.757c-.062.038-.256.162-.424.242-.169.08-.4.18-.475.205l-.168-.366 1.254-.875h.487v3.551h.58v.553zm10.45-9.251v.021H18.955L9.71 40.584c3.293 4.008 8.225 8.187 15.617 11.71 7.41-3.53 12.345-7.717 15.635-11.73L31.714 34.8z" id="Fill-66" fill="#0D395F" mask="url(#mask-6)"/><path d="M30.375 40.393c-.243 0-.43.194-.55.522-.099.267-.143.621-.143 1.062 0 .416.031.739.088.968.112.485.337.69.599.69.262 0 .474-.224.586-.584.082-.267.119-.62.119-1.037a3.96 3.96 0 00-.094-.95c-.118-.484-.33-.67-.605-.67" id="Fill-67" fill="#0D395F" mask="url(#mask-6)"/><path id="Fill-68" fill="#0D395F" mask="url(#mask-6)" d="M18.736 28.438h13.175v-.942H18.736z"/><path d="M21.31 32.62h8.027v-1.908H21.31v1.908zm-.947.942h9.92V29.77h-9.92v3.792z" id="Fill-69" fill="#0D395F" mask="url(#mask-6)"/><path id="Fill-70" fill="#0D395F" mask="url(#mask-6)" d="M24.3 18.231h2.047V15.07H24.3z"/><path id="Fill-71" fill="#0D395F" mask="url(#mask-6)" d="M22.566 18.23h.632v-3.156h-.632z"/><path id="Fill-72" fill="#0D395F" mask="url(#mask-6)" d="M27.448 18.23h.632v-3.156h-.632z"/><path d="M25.925 5.048c0 .312-.27.565-.601.565-.333 0-.602-.253-.602-.565 0-.314.27-.568.602-.568.332 0 .6.254.6.568" id="Fill-73" fill="#0D395F" mask="url(#mask-6)"/><path d="M18.933 31.408L7.98 38.279c.233.34.478.68.734 1.024l10.219-6.41v-1.485z" id="Fill-74" fill="#0D395F" mask="url(#mask-6)"/><path d="M31.713 32.946l10.2 6.414c.257-.343.503-.685.736-1.024L31.713 31.46v1.486z" id="Fill-75" fill="#0D395F" mask="url(#mask-6)"/></g></g></g></svg>